<svg width="40" height="40" viewBox="0 0 40 40" fill="none" xmlns="http://www.w3.org/2000/svg">
<rect width="40" height="40" rx="10" fill="#1DA59A"/>
<path d="M19.6148 9.13649C19.9247 8.57298 19.8827 7.88149 19.5069 7.35962C19.1312 6.83775 18.4887 6.57861 17.856 6.69373C12.3325 7.69874 8.1445 12.5313 8.1445 18.3455C8.1445 21.3052 9.23229 24.015 11.0277 26.0905C11.6299 26.7867 12.6824 26.8628 13.3785 26.2606C14.0747 25.6585 14.1509 24.6059 13.5487 23.9098C12.2573 22.4169 11.4778 20.4743 11.4778 18.3455C11.4778 15.2891 13.09 12.6073 15.5106 11.1066C15.4467 11.5723 15.4136 12.0476 15.4136 12.5302C15.4136 18.2683 20.0652 22.9199 25.8033 22.9199C26.2859 22.9199 26.7611 22.8869 27.2267 22.823C26.9889 23.2064 26.7214 23.5697 26.4273 23.9098C25.8251 24.6059 25.9013 25.6585 26.5974 26.2606C27.2936 26.8628 28.3461 26.7867 28.9483 26.0905C30.3013 24.5264 31.2533 22.6014 31.6398 20.4775C31.7549 19.8448 31.4958 19.2023 30.9739 18.8266C30.452 18.4508 29.7605 18.4088 29.197 18.7187C28.1917 19.2714 27.0368 19.5865 25.8033 19.5865C21.9062 19.5865 18.747 16.4273 18.747 12.5302C18.747 11.2967 19.0621 10.1418 19.6148 9.13649Z" fill="#F7F5F0"/>
<path d="M31.6667 33.3335C32.5872 33.3335 33.3334 32.5873 33.3334 31.6668C33.3334 30.7463 32.5872 30.0001 31.6667 30.0001H8.33335C7.41288 30.0001 6.66669 30.7463 6.66669 31.6668C6.66669 32.5873 7.41288 33.3335 8.33335 33.3335L31.6667 33.3335Z" fill="#F7F5F0"/>
</svg>
