<svg width="143" height="40" viewBox="0 0 143 40" fill="none" xmlns="http://www.w3.org/2000/svg">
<path d="M19.6148 9.13649C19.9247 8.57298 19.8827 7.88149 19.5069 7.35962C19.1312 6.83775 18.4887 6.57861 17.856 6.69373C12.3325 7.69874 8.1445 12.5313 8.1445 18.3455C8.1445 21.3052 9.23229 24.015 11.0277 26.0905C11.6299 26.7867 12.6824 26.8628 13.3785 26.2606C14.0747 25.6585 14.1509 24.6059 13.5487 23.9098C12.2573 22.4169 11.4778 20.4743 11.4778 18.3455C11.4778 15.2891 13.09 12.6073 15.5106 11.1066C15.4467 11.5723 15.4136 12.0476 15.4136 12.5302C15.4136 18.2683 20.0652 22.9199 25.8033 22.9199C26.2859 22.9199 26.7611 22.8869 27.2267 22.823C26.9889 23.2064 26.7214 23.5697 26.4273 23.9098C25.8251 24.6059 25.9013 25.6585 26.5974 26.2606C27.2936 26.8628 28.3461 26.7867 28.9483 26.0905C30.3013 24.5264 31.2533 22.6014 31.6398 20.4775C31.7549 19.8448 31.4958 19.2023 30.9739 18.8266C30.452 18.4508 29.7605 18.4088 29.197 18.7187C28.1917 19.2714 27.0368 19.5865 25.8033 19.5865C21.9062 19.5865 18.747 16.4273 18.747 12.5302C18.747 11.2967 19.0621 10.1418 19.6148 9.13649Z" fill="#1DA59A"/>
<path d="M31.6667 33.3335C32.5872 33.3335 33.3334 32.5873 33.3334 31.6668C33.3334 30.7463 32.5872 30.0001 31.6667 30.0001H8.33335C7.41288 30.0001 6.66669 30.7463 6.66669 31.6668C6.66669 32.5873 7.41288 33.3335 8.33335 33.3335L31.6667 33.3335Z" fill="#1DA59A"/>
<path d="M52.153 13.9875H57.1405V28H54.3475V15.726L54.4045 15.764L51.6685 28H47.8115L45.028 15.7355L45.085 15.707V28H42.2825V13.9875H47.27L49.8255 26.6035H49.5785L52.153 13.9875ZM64.6264 28.2185C63.537 28.2185 62.5775 27.9937 61.7479 27.544C60.9182 27.0943 60.269 26.4768 59.8004 25.6915C59.338 24.8998 59.1069 23.9878 59.1069 22.9555C59.1069 21.9295 59.338 21.0238 59.8004 20.2385C60.269 19.4468 60.9182 18.8325 61.7479 18.3955C62.5775 17.9522 63.537 17.7305 64.6264 17.7305C65.7157 17.7305 66.6752 17.9522 67.5049 18.3955C68.3345 18.8325 68.9805 19.4468 69.4429 20.2385C69.9115 21.0238 70.1459 21.9295 70.1459 22.9555C70.1459 23.9878 69.9115 24.8998 69.4429 25.6915C68.9805 26.4768 68.3345 27.0943 67.5049 27.544C66.6752 27.9937 65.7157 28.2185 64.6264 28.2185ZM64.6264 25.8815C65.1394 25.8815 65.5859 25.7612 65.9659 25.5205C66.3459 25.2798 66.6404 24.941 66.8494 24.504C67.0584 24.0607 67.1629 23.5445 67.1629 22.9555C67.1629 22.3665 67.0584 21.8567 66.8494 21.426C66.6404 20.989 66.3459 20.6533 65.9659 20.419C65.5859 20.1847 65.1394 20.0675 64.6264 20.0675C64.1197 20.0675 63.6732 20.1847 63.2869 20.419C62.9069 20.6533 62.6124 20.989 62.4034 21.426C62.1944 21.8567 62.0899 22.3665 62.0899 22.9555C62.0899 23.5445 62.1944 24.0607 62.4034 24.504C62.6124 24.941 62.9069 25.2798 63.2869 25.5205C63.6732 25.7612 64.1197 25.8815 64.6264 25.8815ZM76.1844 28.228C75.5828 28.228 75.0033 28.1583 74.4459 28.019C73.8886 27.8797 73.3883 27.6738 72.9449 27.4015C72.5079 27.1292 72.1596 26.7903 71.8999 26.385C71.6466 25.9733 71.5199 25.4952 71.5199 24.9505C71.5199 24.9252 71.5199 24.8967 71.5199 24.865C71.5199 24.827 71.5199 24.7985 71.5199 24.7795H74.4459C74.4459 24.7985 74.4459 24.8207 74.4459 24.846C74.4459 24.865 74.4459 24.8872 74.4459 24.9125C74.4459 25.2798 74.6074 25.549 74.9304 25.72C75.2598 25.891 75.7031 25.9765 76.2604 25.9765C76.5518 25.9765 76.8304 25.948 77.0964 25.891C77.3688 25.8277 77.5904 25.7295 77.7614 25.5965C77.9388 25.4572 78.0274 25.283 78.0274 25.074C78.0274 24.7383 77.8406 24.5008 77.4669 24.3615C77.0996 24.2222 76.5074 24.0828 75.6904 23.9435C75.2281 23.8675 74.7594 23.7598 74.2844 23.6205C73.8094 23.4812 73.3724 23.2975 72.9734 23.0695C72.5744 22.8352 72.2546 22.5407 72.0139 22.186C71.7733 21.825 71.6529 21.388 71.6529 20.875C71.6529 20.191 71.8588 19.6147 72.2704 19.146C72.6884 18.6773 73.2426 18.3227 73.9329 18.082C74.6233 17.8413 75.3833 17.721 76.2129 17.721C77.0046 17.721 77.7424 17.854 78.4264 18.12C79.1104 18.3797 79.6646 18.7565 80.0889 19.2505C80.5133 19.7382 80.7254 20.3272 80.7254 21.0175C80.7254 21.0302 80.7254 21.0492 80.7254 21.0745C80.7254 21.0998 80.7254 21.1252 80.7254 21.1505H77.8279C77.8279 21.1252 77.8279 21.103 77.8279 21.084C77.8279 21.065 77.8279 21.0492 77.8279 21.0365C77.8279 20.7832 77.7456 20.5773 77.5809 20.419C77.4226 20.2607 77.2199 20.1435 76.9729 20.0675C76.7259 19.9852 76.4694 19.944 76.2034 19.944C75.9628 19.944 75.7126 19.9725 75.4529 20.0295C75.1996 20.0802 74.9843 20.1688 74.8069 20.2955C74.6296 20.4158 74.5409 20.5868 74.5409 20.8085C74.5409 21.0238 74.6359 21.2012 74.8259 21.3405C75.0159 21.4735 75.2819 21.5843 75.6239 21.673C75.9659 21.7553 76.3618 21.8345 76.8114 21.9105C77.2358 21.9802 77.6823 22.0783 78.1509 22.205C78.6259 22.3253 79.0693 22.4995 79.4809 22.7275C79.8989 22.9492 80.2346 23.2437 80.4879 23.611C80.7476 23.972 80.8774 24.4312 80.8774 24.9885C80.8774 25.5648 80.7444 26.0588 80.4784 26.4705C80.2124 26.8822 79.8514 27.2178 79.3954 27.4775C78.9458 27.7308 78.4423 27.9177 77.8849 28.038C77.3339 28.1647 76.7671 28.228 76.1844 28.228ZM87.5948 28.209C87.2085 28.209 86.8095 28.1742 86.3978 28.1045C85.9925 28.0412 85.6125 27.9113 85.2578 27.715C84.9095 27.5123 84.6277 27.2178 84.4123 26.8315C84.197 26.4452 84.0893 25.9353 84.0893 25.302C84.0893 25.1627 84.0893 25.0202 84.0893 24.8745C84.0893 24.7288 84.0893 24.5832 84.0893 24.4375V20.191H81.7618V17.911H82.4173C82.7973 17.911 83.0982 17.8952 83.3198 17.8635C83.5478 17.8318 83.7157 17.7527 83.8233 17.626C83.9373 17.493 84.0102 17.2872 84.0418 17.0085C84.0735 16.7298 84.0893 16.3467 84.0893 15.859V14.586H87.0438V17.911H89.9793V20.191H87.0438V23.82C87.0438 23.934 87.0438 24.0448 87.0438 24.1525C87.0438 24.2602 87.0438 24.3647 87.0438 24.466C87.0438 24.903 87.0945 25.2577 87.1958 25.53C87.3035 25.8023 87.5663 25.9385 87.9843 25.9385C88.1933 25.9385 88.3897 25.9195 88.5733 25.8815C88.7633 25.8435 88.9058 25.8055 89.0008 25.7675V27.981C88.8678 28.038 88.681 28.0887 88.4403 28.133C88.1997 28.1837 87.9178 28.209 87.5948 28.209ZM94.8142 13.1515V28H91.9072V13.1515H94.8142ZM97.0501 28V17.911H99.9666V28H97.0501ZM98.5036 16.2675C98.0476 16.2675 97.6486 16.1472 97.3066 15.9065C96.971 15.6658 96.8031 15.327 96.8031 14.89C96.8031 14.4467 96.971 14.1047 97.3066 13.864C97.6486 13.6233 98.0476 13.503 98.5036 13.503C98.966 13.503 99.365 13.6233 99.7006 13.864C100.043 14.1047 100.214 14.4467 100.214 14.89C100.214 15.3333 100.043 15.6753 99.7006 15.916C99.365 16.1503 98.966 16.2675 98.5036 16.2675ZM108.435 28V24.0955C108.435 23.7218 108.435 23.3988 108.435 23.1265C108.435 22.8478 108.435 22.6167 108.435 22.433C108.435 22.1733 108.419 21.9168 108.388 21.6635C108.362 21.4102 108.299 21.1758 108.198 20.9605C108.103 20.7388 107.954 20.5647 107.751 20.438C107.549 20.305 107.273 20.2385 106.925 20.2385C106.602 20.2385 106.323 20.3082 106.089 20.4475C105.854 20.5805 105.661 20.7673 105.509 21.008C105.364 21.2423 105.256 21.5147 105.186 21.825C105.117 22.129 105.082 22.4488 105.082 22.7845L104.274 22.1195C104.274 21.2645 104.429 20.5077 104.74 19.849C105.05 19.184 105.49 18.6647 106.06 18.291C106.637 17.911 107.317 17.721 108.103 17.721C108.945 17.721 109.601 17.9015 110.069 18.2625C110.544 18.6172 110.877 19.0922 111.067 19.6875C111.263 20.2765 111.361 20.9288 111.361 21.6445C111.361 21.9168 111.361 22.2842 111.361 22.7465C111.361 23.2088 111.361 23.763 111.361 24.409V28H108.435ZM102.137 28V17.911H105.082V28H102.137ZM114.705 28V24.105C114.705 23.7187 114.705 23.3862 114.705 23.1075C114.705 22.8288 114.705 22.5977 114.705 22.414C114.705 22.1353 114.689 21.8693 114.658 21.616C114.626 21.3563 114.56 21.122 114.458 20.913C114.357 20.704 114.205 20.5393 114.002 20.419C113.8 20.2987 113.524 20.2385 113.176 20.2385C112.853 20.2385 112.574 20.3082 112.34 20.4475C112.112 20.5805 111.925 20.7642 111.779 20.9985C111.634 21.2328 111.526 21.4988 111.456 21.7965C111.393 22.0942 111.361 22.4045 111.361 22.7275L110.554 22.072C110.554 21.2297 110.706 20.4823 111.01 19.83C111.32 19.1777 111.757 18.6647 112.321 18.291C112.891 17.911 113.572 17.721 114.363 17.721C115.187 17.721 115.836 17.8952 116.311 18.2435C116.792 18.5918 117.134 19.0573 117.337 19.64C117.546 20.2163 117.65 20.8623 117.65 21.578C117.65 21.863 117.65 22.2303 117.65 22.68C117.65 23.1297 117.65 23.6775 117.65 24.3235V28H114.705ZM123.277 28.209C122.542 28.209 121.886 28.0918 121.31 27.8575C120.74 27.6232 120.294 27.2843 119.971 26.841C119.648 26.3977 119.486 25.8593 119.486 25.226C119.486 24.5103 119.682 23.9277 120.075 23.478C120.468 23.0283 120.987 22.6863 121.633 22.452C122.285 22.2113 122.992 22.053 123.752 21.977C124.86 21.8693 125.623 21.7712 126.041 21.6825C126.465 21.5938 126.678 21.4387 126.678 21.217C126.678 21.2107 126.678 21.2043 126.678 21.198C126.678 20.8243 126.497 20.5298 126.136 20.3145C125.781 20.0992 125.284 19.9915 124.645 19.9915C123.967 19.9915 123.448 20.115 123.087 20.362C122.732 20.6027 122.555 20.9732 122.555 21.4735H119.657C119.657 20.6628 119.876 19.9788 120.313 19.4215C120.756 18.8642 121.354 18.443 122.108 18.158C122.862 17.8667 123.714 17.721 124.664 17.721C125.55 17.721 126.37 17.8572 127.124 18.1295C127.878 18.3955 128.483 18.7977 128.939 19.336C129.401 19.8743 129.632 20.5583 129.632 21.388C129.632 21.521 129.632 21.654 129.632 21.787C129.632 21.9137 129.632 22.0435 129.632 22.1765V25.7485C129.632 26.0082 129.638 26.2583 129.651 26.499C129.67 26.7333 129.708 26.9487 129.765 27.145C129.828 27.3667 129.908 27.5503 130.003 27.696C130.098 27.8417 130.177 27.943 130.24 28H127.343C127.298 27.9557 127.229 27.8638 127.134 27.7245C127.045 27.5852 126.969 27.4237 126.906 27.24C126.83 27.0183 126.773 26.7967 126.735 26.575C126.703 26.347 126.687 26.081 126.687 25.777L127.295 26.195C127.118 26.613 126.83 26.974 126.431 27.278C126.038 27.5757 125.569 27.8068 125.025 27.9715C124.486 28.1298 123.904 28.209 123.277 28.209ZM124.065 26.005C124.527 26.005 124.958 25.9227 125.357 25.758C125.762 25.587 126.092 25.321 126.345 24.96C126.598 24.599 126.725 24.1272 126.725 23.5445V22.528L127.457 23.2405C127.039 23.3925 126.554 23.5192 126.003 23.6205C125.458 23.7155 124.914 23.7915 124.369 23.8485C123.723 23.9118 123.239 24.0227 122.916 24.181C122.599 24.333 122.441 24.5927 122.441 24.96C122.441 25.3083 122.577 25.5712 122.849 25.7485C123.121 25.9195 123.527 26.005 124.065 26.005ZM138.893 28V24.409C138.893 24.2823 138.893 24.1082 138.893 23.8865C138.893 23.6648 138.893 23.44 138.893 23.212C138.893 22.984 138.893 22.8003 138.893 22.661C138.893 21.8883 138.754 21.293 138.475 20.875C138.197 20.4507 137.687 20.2385 136.946 20.2385C136.464 20.2385 136.059 20.3367 135.73 20.533C135.4 20.723 135.15 20.9922 134.979 21.3405C134.815 21.6888 134.732 22.0973 134.732 22.566L133.877 21.977C133.877 21.1347 134.058 20.3968 134.419 19.7635C134.78 19.1238 135.277 18.6235 135.91 18.2625C136.55 17.9015 137.288 17.721 138.124 17.721C139.359 17.721 140.287 18.0852 140.907 18.8135C141.528 19.5355 141.838 20.5425 141.838 21.8345C141.838 22.1638 141.838 22.5597 141.838 23.022C141.838 23.4843 141.838 24.0195 141.838 24.6275V28H138.893ZM131.787 28V13.1515H134.732V28H131.787Z" fill="#10212C"/>
</svg>
